<?xml version="1.0" standalone="no"?>
<!DOCTYPE svg PUBLIC "-//W3C//DTD SVG 20010904//EN"
 "http://www.w3.org/TR/2001/REC-SVG-20010904/DTD/svg10.dtd">
<svg version="1.0" xmlns="http://www.w3.org/2000/svg"
 width="1930.000000pt" height="1930.000000pt" viewBox="0 0 1930.000000 1930.000000"
 preserveAspectRatio="xMidYMid meet">
<metadata>
Created by potrace 1.11, written by Peter Selinger 2001-2013
</metadata>
<g transform="translate(0.000000,1930.000000) scale(0.100000,-0.100000)"
fill="#000000" stroke="none">
<path d="M9329 19295 c-2 -2 -69 -6 -149 -10 -80 -3 -156 -8 -170 -9 -14 -2
-67 -7 -118 -10 -51 -4 -100 -9 -110 -10 -9 -2 -52 -7 -95 -11 -43 -3 -88 -8
-100 -10 -12 -2 -44 -6 -72 -9 -27 -4 -61 -8 -75 -11 -14 -2 -47 -7 -75 -10
-60 -8 -208 -30 -290 -45 -33 -6 -74 -13 -91 -15 -49 -7 -322 -64 -414 -86
-47 -12 -97 -23 -112 -26 -21 -3 -412 -109 -508 -137 -655 -193 -1396 -511
-2005 -861 -404 -232 -827 -517 -1175 -792 -72 -56 -206 -166 -256 -210 -12
-10 -43 -36 -70 -58 -279 -235 -672 -622 -935 -920 -79 -89 -104 -118 -114
-129 -25 -28 -157 -188 -210 -256 -32 -41 -62 -77 -65 -80 -6 -5 -203 -271
-267 -360 -147 -205 -370 -554 -505 -790 -227 -397 -466 -899 -623 -1310 -26
-69 -51 -134 -55 -145 -5 -11 -13 -36 -20 -55 -7 -19 -16 -44 -20 -55 -16 -39
-70 -202 -111 -330 -59 -187 -161 -561 -174 -634 -3 -19 -8 -37 -10 -41 -2 -3
-6 -17 -9 -31 -3 -13 -23 -111 -45 -218 -22 -106 -48 -237 -56 -290 -9 -53
-18 -107 -21 -121 -2 -14 -7 -41 -10 -60 -3 -19 -10 -64 -15 -100 -13 -79 -15
-97 -24 -180 -4 -36 -8 -72 -10 -80 -2 -8 -6 -49 -10 -90 -4 -41 -9 -88 -11
-105 -1 -16 -6 -66 -9 -110 -3 -44 -8 -93 -10 -110 -27 -219 -27 -1175 -1
-1435 2 -19 7 -73 10 -120 4 -47 8 -96 10 -110 3 -14 7 -57 10 -95 4 -39 8
-81 10 -95 3 -14 7 -52 11 -85 4 -32 8 -67 10 -76 2 -10 6 -46 10 -80 4 -35 8
-66 10 -69 1 -3 6 -25 9 -50 3 -25 9 -58 11 -75 9 -50 24 -138 30 -175 3 -19
8 -42 10 -50 2 -8 7 -28 9 -45 6 -30 22 -114 30 -150 2 -11 11 -54 20 -95 8
-41 29 -131 47 -200 17 -69 32 -132 34 -140 33 -155 175 -611 275 -885 152
-414 374 -914 537 -1205 7 -14 29 -54 47 -90 29 -55 172 -305 225 -392 9 -14
29 -48 45 -75 97 -160 434 -651 530 -771 8 -9 70 -87 137 -172 116 -146 312
-377 424 -500 67 -74 537 -544 600 -600 54 -49 221 -197 270 -239 17 -14 55
-46 85 -71 30 -25 57 -47 60 -50 3 -3 25 -21 50 -40 25 -19 47 -37 50 -41 5
-6 361 -274 432 -325 472 -338 1029 -656 1633 -934 402 -185 1000 -395 1460
-514 77 -20 154 -41 170 -46 34 -10 399 -91 430 -95 19 -3 175 -32 220 -41 23
-5 273 -43 325 -50 19 -2 46 -6 60 -9 14 -2 52 -7 85 -10 33 -4 71 -8 85 -11
14 -2 57 -6 95 -9 39 -3 79 -8 90 -10 11 -2 67 -7 125 -10 58 -4 121 -9 140
-11 237 -24 1086 -24 1330 0 19 2 73 7 120 10 47 4 103 9 125 11 22 3 65 7 95
9 30 3 73 7 95 10 22 3 63 8 90 11 28 3 64 7 80 10 17 3 44 7 60 10 17 3 50 7
75 10 72 9 228 34 310 50 41 8 89 17 105 20 62 10 92 16 153 30 34 8 77 17 95
20 17 3 59 13 92 22 33 8 71 17 85 20 39 8 44 9 65 16 11 3 31 8 45 11 14 3
43 10 65 16 22 6 47 12 55 14 8 2 58 16 110 30 52 15 102 29 110 31 36 9 167
50 325 103 94 31 172 57 175 57 3 1 12 4 20 8 8 3 76 28 150 55 301 111 562
224 875 377 215 106 433 221 540 287 17 10 37 21 45 25 8 4 71 41 140 83 69
42 136 83 149 91 62 36 429 284 546 369 213 155 610 470 660 524 6 6 48 44 95
85 168 148 556 529 695 685 44 49 85 94 90 100 394 432 879 1106 1180 1641 16
28 39 68 51 90 74 128 267 510 339 670 37 83 78 174 91 203 25 54 160 394 189
472 76 210 240 723 260 813 2 12 9 40 15 62 6 22 12 47 14 55 2 8 12 44 21 80
10 36 19 74 20 85 2 11 15 69 29 129 14 59 28 121 31 137 3 16 12 60 19 97 8
37 17 85 20 107 3 22 8 54 11 70 3 17 -19 -37 -49 -120 -172 -479 -353 -878
-591 -1310 -115 -209 -337 -561 -471 -750 -36 -49 -75 -106 -88 -125 -30 -45
-267 -351 -326 -420 -244 -287 -313 -363 -555 -606 -172 -172 -264 -258 -445
-418 -430 -379 -995 -769 -1570 -1084 -193 -105 -556 -277 -797 -376 -305
-125 -841 -306 -1043 -351 -8 -2 -51 -13 -95 -25 -44 -12 -89 -23 -100 -26
-31 -6 -63 -14 -82 -18 -47 -12 -404 -85 -443 -91 -25 -3 -63 -10 -85 -15 -22
-5 -64 -11 -94 -15 -30 -4 -62 -8 -71 -10 -9 -2 -41 -6 -70 -10 -29 -4 -60 -8
-69 -10 -9 -1 -45 -6 -81 -10 -36 -3 -83 -9 -105 -12 -48 -6 -73 -8 -190 -18
-49 -3 -106 -8 -125 -10 -241 -24 -1053 -24 -1239 0 -15 1 -71 6 -126 10 -55
4 -102 9 -105 10 -3 2 -43 6 -90 10 -47 4 -87 8 -90 10 -3 2 -39 6 -80 10 -41
4 -77 8 -80 10 -3 2 -29 6 -59 10 -30 4 -63 9 -75 11 -12 2 -41 7 -66 10 -25
3 -61 9 -80 14 -19 5 -53 11 -75 14 -54 7 -224 41 -307 60 -38 9 -98 23 -135
32 -38 9 -75 17 -83 19 -8 2 -34 8 -58 14 l-42 12 0 2398 0 2398 753 2 c413 0
813 3 887 5 171 6 358 15 435 21 33 2 98 7 145 10 47 3 108 8 135 11 28 3 73
7 100 9 137 13 163 16 195 20 19 2 58 7 85 10 28 4 61 8 75 10 14 2 72 11 130
20 151 22 162 24 300 52 69 13 134 26 145 29 210 41 542 144 745 230 116 50
324 157 407 210 29 19 57 34 62 34 5 0 11 3 13 8 2 4 41 33 88 64 232 156 508
413 700 654 343 428 600 956 744 1529 35 138 90 402 100 480 3 22 8 51 10 65
3 14 7 48 10 75 10 77 17 138 22 165 2 14 6 59 10 100 3 41 7 91 9 110 25 235
25 1057 1 1210 -3 14 -7 59 -11 100 -4 41 -9 83 -10 93 -2 10 -6 44 -9 75 -3
31 -8 66 -10 77 -2 11 -7 43 -10 70 -4 28 -16 97 -28 155 -11 58 -22 116 -25
130 -2 14 -16 72 -29 130 -14 58 -27 114 -29 124 -3 11 -11 40 -19 65 -8 25
-29 93 -46 151 -260 840 -814 1623 -1455 2057 -203 137 -447 257 -675 333
-157 51 -460 129 -570 145 -24 4 -47 8 -50 10 -3 2 -24 6 -46 9 -22 4 -51 9
-64 11 -14 3 -41 8 -60 11 -19 3 -44 7 -55 9 -76 12 -94 15 -125 19 -19 3 -60
8 -90 11 -30 4 -66 9 -80 11 -44 7 -182 23 -255 29 -38 4 -83 8 -100 10 -16 1
-73 5 -125 9 -52 4 -113 9 -135 11 -22 3 -92 7 -155 10 -63 4 -146 8 -185 10
-257 15 -751 18 -2750 19 l-2250 1 -3 -6128 -2 -6128 -47 38 c-61 49 -226 186
-233 193 -3 3 -41 37 -85 75 -191 168 -523 495 -680 670 -49 55 -92 102 -95
105 -20 17 -274 328 -363 445 -58 77 -110 145 -115 150 -37 46 -287 414 -359
531 -50 81 -156 258 -178 299 -15 28 -35 64 -45 80 -170 290 -423 845 -562
1230 -42 116 -137 399 -143 425 -1 8 -11 42 -21 75 -10 33 -19 65 -20 70 -2 6
-15 53 -29 105 -32 114 -27 91 -70 275 -20 83 -38 166 -41 185 -3 19 -8 38
-10 41 -2 4 -6 24 -9 45 -4 22 -8 47 -11 56 -3 10 -7 30 -10 45 -2 16 -7 39
-9 53 -3 14 -8 39 -10 55 -3 17 -10 53 -15 80 -5 28 -12 70 -15 95 -3 25 -8
56 -10 70 -6 36 -12 83 -25 185 -6 50 -13 104 -15 120 -6 45 -18 179 -30 330
-25 313 -25 1144 0 1274 2 12 7 61 10 109 3 48 8 101 10 117 2 17 7 57 10 90
3 33 8 71 10 85 2 14 6 50 9 80 4 30 8 66 10 80 3 14 7 41 10 60 3 19 8 53 11
75 5 34 43 246 61 340 3 17 14 72 25 124 12 51 22 101 24 110 10 48 97 389
120 466 80 277 240 736 305 880 6 11 32 72 58 135 100 236 261 562 387 785 34
61 73 130 87 155 97 175 347 552 516 780 280 377 492 621 841 970 223 222 276
272 400 380 35 30 69 60 75 65 100 94 486 392 701 542 210 146 571 373 593
373 6 0 12 4 14 8 2 5 32 25 68 44 36 20 92 50 125 69 130 71 408 208 565 278
91 40 173 77 183 82 97 50 674 258 902 324 78 23 322 89 365 99 8 2 67 16 130
30 63 15 126 30 140 33 42 10 54 13 80 17 14 3 88 16 165 31 77 14 154 28 170
30 27 4 85 13 125 20 8 1 42 6 75 10 32 4 68 9 80 11 11 3 43 7 70 10 28 2 64
6 80 8 17 2 68 8 115 12 47 4 88 9 93 10 4 1 28 2 54 3 70 2 46 11 -43 17 -94
6 -980 14 -985 9z m781 -5430 c186 -7 253 -11 301 -19 19 -2 57 -7 84 -11 41
-5 123 -19 170 -30 6 -1 28 -5 50 -9 171 -33 365 -118 485 -213 302 -239 541
-648 627 -1073 4 -19 8 -37 8 -40 1 -3 5 -25 9 -50 5 -25 10 -54 12 -65 4 -19
12 -78 19 -135 27 -203 27 -742 1 -900 -3 -14 -7 -50 -10 -80 -6 -53 -10 -76
-21 -137 -3 -16 -8 -44 -11 -63 -3 -19 -21 -93 -39 -165 -92 -359 -248 -671
-414 -828 -69 -65 -210 -167 -231 -167 -5 0 -10 -4 -10 -10 0 -5 -4 -10 -9
-10 -5 0 -43 -15 -84 -34 -176 -81 -440 -150 -660 -172 -34 -3 -73 -7 -87 -10
-79 -12 -319 -18 -830 -18 l-575 -1 -3 2122 -2 2122 37 3 c64 5 1009 0 1183
-7z"/>
</g>
</svg>
